<svg height="512" viewBox="0 0 64 64" width="512" xmlns="http://www.w3.org/2000/svg"><circle cx="32" cy="32" fill="#9bc9ff" r="2"/><path d="m56 8h-48v48h48zm-4 24v20h-40v-40h40z" fill="#9bc9ff"/><g fill="#57a4ff"><path d="m12 53h40a1 1 0 0 0 1-1v-40a1 1 0 0 0 -1-1h-40a1 1 0 0 0 -1 1v40a1 1 0 0 0 1 1zm7.875-40 3.759 6.51 1.732-1-3.181-5.51h8.815v4h2v-4h8.815l-3.181 5.51 1.732 1 3.759-6.51h6.875v6.876l-6.51 3.758 1 1.732 5.51-3.181v8.815h-4v2h4v8.815l-5.51-3.181-1 1.732 6.51 3.758v6.876h-6.875l-3.759-6.51-1.732 1 3.181 5.51h-8.815v-4h-2v4h-8.815l3.181-5.51-1.732-1-3.759 6.51h-6.875v-6.876l6.51-3.758-1-1.732-5.51 3.181v-8.815h4v-2h-4v-8.815l5.51 3.181 1-1.732-6.51-3.758v-6.876z"/><path d="m32 35a3 3 0 0 0 2.816-2h4.184v-2h-4.184a3 3 0 0 0 -1.816-1.816v-10.184h-2v10.184a2.993 2.993 0 0 0 1 5.816zm0-4a1 1 0 1 1 -1 1 1 1 0 0 1 1-1z"/><path d="m56 7h-48a1 1 0 0 0 -1 1v48a1 1 0 0 0 1 1h48a1 1 0 0 0 1-1v-48a1 1 0 0 0 -1-1zm-1 48h-46v-46h46z"/><path d="m59 2h-54a3 3 0 0 0 -3 3v54a3 3 0 0 0 3 3h54a3 3 0 0 0 3-3v-54a3 3 0 0 0 -3-3zm1 57a1 1 0 0 1 -1 1h-54a1 1 0 0 1 -1-1v-54a1 1 0 0 1 1-1h54a1 1 0 0 1 1 1z"/></g></svg>