<?xml version="1.0" encoding="iso-8859-1"?>
<!-- Generator: Adobe Illustrator 19.0.0, SVG Export Plug-In . SVG Version: 6.00 Build 0)  -->
<svg version="1.1" id="Layer_1" xmlns="http://www.w3.org/2000/svg" xmlns:xlink="http://www.w3.org/1999/xlink" x="0px" y="0px"
	 viewBox="0 0 501.216 501.216" style="enable-background:new 0 0 501.216 501.216;" xml:space="preserve">
<rect x="283.971" y="-14.505" transform="matrix(-0.7071 -0.7071 0.7071 -0.7071 444.0455 524.1157)" style="fill:#E07D46;" width="93.199" height="369.196"/>
<rect x="138.641" y="152.448" transform="matrix(0.7071 -0.7071 0.7071 0.7071 -20.0522 276.0858)" style="fill:#EF934A;" width="369.196" height="19.6"/>
<g>
	<path style="fill:#CCCCCC;" d="M172.816,277.608c-0.4,0-0.4,0-0.8,0l0.4,0.4L172.816,277.608z"/>
	<path style="fill:#CCCCCC;" d="M182.016,287.208C182.016,287.208,181.616,287.208,182.016,287.208L182.016,287.208L182.016,287.208
		z"/>
</g>
<g>
	<path style="fill:#73BADD;" d="M167.616,273.608l-4-4c-31.2-7.2-62.8,1.6-85.6,24.4c-25.6,25.6-51.2,118-64,168.8
		c18-47.2,51.2-130.4,77.2-156.4C113.216,284.408,141.616,272.408,167.616,273.608z"/>
	<path style="fill:#73BADD;" d="M231.616,337.208l-4-4c1.2,26.4-10.8,54.8-33.2,76.8c-3.2,3.2-8,7.2-13.6,10.8
		c-0.4,0.4-0.8,0.4-1.2,0.4c-0.8,0-1.2-0.4-1.6-0.8c-0.8-0.8-0.4-2,0.4-2.8c1.2-0.8,2-1.6,2.8-2c4-2.8,7.2-5.6,10-8.4
		c22-22,33.6-50,31.6-75.6c0-0.8,0-1.6,0-2.4l-6.4-6.4c-3.6,21.6-18.8,46.8-40.8,68.8c-0.4,0.4-0.8,0.4-1.2,0.4s-0.8,0-1.2-0.4
		c-0.8-0.8-0.8-2,0-2.8c2-2,3.6-3.6,5.2-5.6c18-19.6,30.4-41.6,34-60c0.4-1.6,0.4-2.8,0.8-4l-8.8-8.8c-8,13.2-22.4,31.2-40.8,50
		c-0.4,0.4-0.8,0.8-1.2,1.2c0,0-0.4,0-0.4,0.4c-0.4,0.4-0.8,0.4-1.2,0.4s-0.8,0-1.2-0.4c-0.8-0.8-0.8-2,0-2.8c1.2-1.2,2-2.4,3.2-3.2
		c0.8-0.8,2-2,2.8-2.8c16-17.2,29.2-33.6,36-45.2l-9.2-9.2c-0.8,0.4-1.2,0.8-2,1.2c-3.6,2.8-8.4,6.4-14,10.4c-2.8,2-5.6,4.4-8.4,6.8
		c-10.8,8.8-22.8,20-34.8,31.6c-28,28-89.6,102.8-115.6,134.8c27.6-22.4,87.6-72,121.2-102.8c0.8-0.8,1.6-0.8,2.4,0
		c0,0,0.4,0,0.4,0.4c0.8,0.8,0.8,2,0,2.8c-33.2,30.8-92.4,79.2-120.4,102c30.8-16.4,93.6-51.6,131.2-78.8c0.4-0.4,1.2-0.4,1.6-0.4
		c0.4,0,0.8,0.4,1.2,0.8c0.8,0.8,0.4,2-0.4,2.8c-36,25.6-94.4,58.4-126.8,76c31.6-11.6,86.4-32.8,125.6-53.6c0.4,0,0.8-0.4,1.2,0
		c0.8,0,1.2,0.4,1.6,0.8c0.4,0.8,0,2-0.8,2.8c-36,19.2-85.2,38.8-117.6,50.4c51.2-12.8,144-38.8,169.6-64.4
		C230.016,400.408,238.816,368.408,231.616,337.208z"/>
	<path style="fill:#73BADD;" d="M171.616,285.608c2-0.4,4.4-1.2,6.4-1.6l-5.2-5.6l-0.4-0.4c-26.4-2.8-55.6,8.8-78,31.6
		c-27.2,26.4-63.2,118.4-79.6,163.2c22-40.4,67.2-120.8,94.4-148C129.216,304.808,152.016,290.808,171.616,285.608z"/>
	<path style="fill:#73BADD;" d="M168.816,311.608c3.2-2.4,6-4.8,9.2-7.2c4.4-3.2,8.8-6,12.4-8.4l-8.4-8.4l0,0
		c-3.2,0.4-6.8,1.2-10.4,2.4c-18.8,5.6-40.4,19.2-59.2,38c-28,28-76.4,114.8-96.8,152.4c26.4-32.8,87.2-106.4,115.2-134.4
		C144.016,332.808,157.216,320.808,168.816,311.608z"/>
</g>
<path d="M4.016,501.208c-1.2,0-2-0.4-2.8-1.2c-0.8-0.8-1.2-2.4-1.2-3.6c1.6-6.8,37.2-169.6,74-206.4c24-24,58.4-33.6,91.6-26
	c2,0.4,3.6,2.8,2.8,4.8s-2.8,3.6-4.8,2.8c-30.8-7.2-62.4,1.6-84.4,23.6c-31.2,31.2-63.2,166-70.4,196.4
	c30.4-6.8,165.2-39.2,196.4-70.4c22-22,30.8-53.6,23.6-84.4c-0.4-2,0.8-4.4,2.8-4.8s4.4,0.8,4.8,2.8c8,33.2-1.6,67.6-26,91.6
	c-36.8,36.8-199.6,72.4-206.4,74C4.416,501.208,4.416,501.208,4.016,501.208z"/>
<path d="M233.216,340.408c-1.2,0-2-0.4-2.8-1.2l-68.4-68.4c-1.6-1.6-1.6-4,0-5.6l264-264c0.8-0.8,1.6-1.2,2.8-1.2l0,0
	c1.2,0,2,0.4,2.8,1.2l68.4,68.4c1.6,1.6,1.6,4,0,5.6l-264,264C235.616,340.008,234.416,340.408,233.216,340.408z M170.416,268.008
	l62.8,62.8l258.4-258.4l-62.8-62.8L170.416,268.008z"/>
<path d="M235.216,294.008c-1.2,0-2-0.4-2.8-1.2l-46-46.4c-1.6-1.6-1.6-4,0-5.6s4-1.6,5.6,0l46,46.4c1.6,1.6,1.6,4,0,5.6
	C237.216,293.608,236.416,294.008,235.216,294.008z"/>
<path d="M4.416,501.208c-1.2,0-2-0.4-2.8-1.2c-1.2-1.2-1.6-2.8-0.8-4c2-6.4,52.8-154,89.2-190.8c24-24,55.2-36.4,83.6-33.2
	c2,0.4,3.6,2.4,3.6,4.4c-0.4,2-2.4,3.6-4.4,3.6c-26-2.8-55.2,8.8-77.2,30.8c-30.8,30.8-73.6,148.4-84.8,180
	c23.6-8.4,94.8-34,142-59.6c2-1.2,4.4-0.4,5.6,1.6c1.2,2,0.4,4.4-1.6,5.6c-57.6,31.2-150,62.4-151.2,62.8
	C5.216,501.208,4.816,501.208,4.416,501.208z"/>
<path d="M180.016,423.608c-1.2,0-2.4-0.4-3.2-1.6c-1.2-1.6-1.2-4.4,0.8-5.6l2.4-2c4-3.2,7.6-5.6,10.4-8.8c22-22,33.6-51.2,30.8-77.2
	c-0.4-2,1.2-4,3.6-4.4c2-0.4,4,1.2,4.4,3.6c3.2,28-9.6,60-33.2,83.6c-3.2,3.2-6.8,6-11.2,9.2l-2.4,2
	C181.616,423.208,180.816,423.608,180.016,423.608z"/>
<path d="M4.016,500.808c-1.2,0-2-0.4-2.8-1.2c-1.2-1.2-1.6-3.2-0.8-4.8c2.8-5.6,71.2-135.2,107.6-171.6c23.6-23.6,51.2-39.2,74-42
	c2-0.4,4,1.2,4.4,3.6c0.4,2-1.2,4-3.6,4.4c-20.8,2.4-46.8,17.2-69.2,39.6c-29.2,29.2-82,125.2-100,158.4
	c27.2-14.4,97.2-52.4,137.2-82c1.6-1.2,4.4-0.8,5.6,0.8c1.2,1.6,0.8,4.4-0.8,5.6c-50.8,37.2-148.8,88.4-149.6,88.8
	C5.216,500.808,4.816,500.808,4.016,500.808z"/>
<path d="M175.216,394.408c-1.2,0-2-0.4-2.8-1.2c-1.6-1.6-1.6-4,0-5.6c22-21.6,37.2-48,39.6-69.2c0.4-2,2.4-3.6,4.4-3.6
	c2,0.4,3.6,2.4,3.6,4.4c-2.8,23.2-18.4,50.8-42,74C177.216,394.008,176.416,394.408,175.216,394.408z"/>
<path d="M4.416,500.808c-1.2,0-2-0.4-2.8-1.2c-1.6-1.6-1.6-3.6-0.4-5.2c0.8-1.2,92-113.6,128-150c22.8-22.8,46-42,62.4-52
	c2-1.2,4.4-0.4,5.6,1.2c1.2,2,0.4,4.4-1.2,5.6c-15.6,9.2-38.4,28.4-60.8,50.4c-23.6,24-72.4,82.4-102.4,118.8
	c30.4-25.2,77.2-63.6,105.2-89.6c1.6-1.6,4-1.2,5.6,0.4s1.2,4-0.4,5.6c-44.8,41.2-135.2,114.4-136,114.8
	C6.016,500.408,5.216,500.808,4.416,500.808z"/>
<path d="M162.016,364.808c-0.8,0-2-0.4-2.8-1.2c-1.6-1.6-1.6-4,0-5.6c18-18.8,34-38.4,42.4-52.4c1.2-2,3.6-2.4,5.6-1.2
	c2,1.2,2.4,3.6,1.2,5.6c-8.4,14.4-24.8,34.8-43.2,54C164.016,364.408,163.216,364.808,162.016,364.808z"/>
<g>
</g>
<g>
</g>
<g>
</g>
<g>
</g>
<g>
</g>
<g>
</g>
<g>
</g>
<g>
</g>
<g>
</g>
<g>
</g>
<g>
</g>
<g>
</g>
<g>
</g>
<g>
</g>
<g>
</g>
</svg>
