<svg viewBox="0 0 512 512" xmlns="http://www.w3.org/2000/svg"><path d="m512 256c0 141.386719-114.613281 256-256 256s-256-114.613281-256-256 114.613281-256 256-256 256 114.613281 256 256zm0 0" fill="#9543ff"/><path d="m512 256c0-11.808594-.816406-23.425781-2.363281-34.808594l-87.023438-87.019531-333.226562 220.886719 156.734375 156.734375c3.277344.125 6.570312.207031 9.878906.207031 141.386719 0 256-114.613281 256-256zm0 0" fill="#7c00ff"/><path d="m235.5 350.058594h41v34.769531h-41zm0 0" fill="#bec3d2"/><path d="m255.605469 350.058594h20.894531v34.769531h-20.894531zm0 0" fill="#afb4c8"/><path d="m152.777344 373.328125h206.445312v23h-206.445312zm0 0" fill="#bec3d2"/><path d="m255.605469 373.328125h103.617187v23h-103.617187zm0 0" fill="#afb4c8"/><path d="m94.386719 139.171875h323.226562v210.886719h-323.226562zm0 0" fill="#414952"/><path d="m417.613281 139.171875-161.613281.5v210.886719l161.613281-.5zm0 0" fill="#23272b"/><path d="m422.613281 355.058594h-333.226562v-220.886719h333.226562zm-323.226562-10h313.226562v-200.886719h-313.226562zm0 0" fill="#fff"/><path d="m422.613281 134.171875h-167.007812v10h157.007812v200.886719h-157.007812v10h167.007812zm0 0" fill="#dce1eb"/><path d="m113.332031 158.285156v168.390625h130.4375v-168.390625zm24.859375 158.78125h-16.09375v-10.566406h16.09375zm0-23.097656h-16.09375v-10.570312h16.09375zm0-23.101562h-16.09375v-10.570313h16.09375zm0-23.101563h-16.09375v-10.570313h16.09375zm0-23.101563h-16.09375v-10.566406h16.09375zm0-23.101562h-16.09375v-10.566406h16.09375zm0-23.097656h-16.09375v-10.570313h16.09375zm69.664063 138.601562h-58.613281v-33.667968h58.613281zm0-46.199218h-58.613281v-56.773438h58.613281zm0-69.304688h-58.613281v-33.667969h58.613281zm27.144531 115.503906h-16.09375v-10.566406h16.09375zm0-23.097656h-16.09375v-10.570312h16.09375zm0-23.101562h-16.09375v-10.570313h16.09375zm0-23.101563h-16.09375v-10.570313h16.09375zm0-23.101563h-16.09375v-10.566406h16.09375zm0-23.101562h-16.09375v-10.566406h16.09375zm0-23.097656h-16.09375v-10.570313h16.09375zm0 0" fill="#19cffc"/><path d="m243.769531 158.285156h-62.101562v9.609375h26.1875v33.667969h-26.1875v12.53125h26.1875v56.773438h-26.1875v12.53125h26.1875v33.667968h-26.1875v9.609375h62.101562zm-8.769531 158.78125h-16.09375v-10.570312h16.09375zm0-23.097656h-16.09375v-10.570312h16.09375zm0-23.101562h-16.09375v-10.570313h16.09375zm0-23.101563h-16.09375v-10.570313h16.09375zm0-23.101563h-16.09375v-10.570312h16.09375zm0-23.101562h-16.09375v-10.570312h16.09375zm0-23.097656h-16.09375v-10.570313h16.09375zm0 0" fill="#4ab8f7"/><path d="m375.972656 244.613281-98.945312-57.125v114.253907zm0 0" fill="#fff"/><path d="m277.027344 244.613281v57.128907l98.945312-57.128907zm0 0" fill="#dce1eb"/></svg>